<svg width="123" height="114" viewBox="0 0 123 114" fill="none" xmlns="http://www.w3.org/2000/svg">
<path d="M16.014 77.3145C28.1776 65.3945 33.7056 57.2078 39.1318 37.4731L51.9204 58.1316H41.0993L36.1806 66.4934H58.8066L76.022 96.9893C48.3602 91.7594 32.8547 92.5091 5.19287 96.9893L12.079 85.6763H56.3472L51.4285 77.3145H16.014Z" fill="black"/>
<path d="M83.1001 95.5629C80.2475 92.7103 45.5405 30.428 45.5405 30.428C55.4977 19.0589 58.6869 12.328 62.1808 0L84.5264 38.5104H72.165L62.1808 21.3947L56.4756 29.0017L88.8053 84.6279H100.216L83.1001 55.6262H75.0177L78.3457 47.0683H90.2317L117.807 96.9893C102.34 93.6485 85.9527 98.4156 83.1001 95.5629Z" fill="black"/>
<path d="M8.94114 105.06H13.7765C14.0199 105.06 14.2315 105.272 14.2315 105.526V108.975C14.2315 109.229 14.0199 109.43 13.7765 109.43H7.33288L8.03121 107.822H12.6232V106.669H7.79843C7.5445 106.669 7.33288 106.467 7.33288 106.214V103.949L8.94114 105.06ZM8.94114 104.267L6.6134 102.658H14.2315L13.5437 104.267H8.94114ZM17.3209 106.669V108.055L18.707 109.43H15.7127V103.949L17.3209 105.06H21.003V104.267H17.3209L14.9932 102.658H22.3785C22.5054 102.658 22.6113 102.754 22.6113 102.881V106.446C22.6113 106.573 22.5054 106.669 22.3785 106.669H17.3209ZM25.7007 107.822H29.3828L31.7105 109.43H24.5474C24.2935 109.43 24.0925 109.229 24.0925 108.975V103.113C24.0925 102.859 24.2935 102.658 24.5474 102.658H30.5255C30.7794 102.658 30.991 102.859 30.991 103.113V108.129L29.3828 107.018V104.267H25.7007V107.822ZM37.892 104.267H33.9772L31.6494 102.658H39.0347C39.1617 102.658 39.2675 102.754 39.2675 102.881V106.446C39.2675 106.573 39.1617 106.669 39.0347 106.669H36.8445L39.2675 109.43H37.236C37.162 109.43 37.0985 109.398 37.0561 109.356L34.7072 106.669H33.9772V108.055L35.3632 109.43H32.3689V103.949L33.9772 105.06H37.892V104.267ZM45.9544 104.267L43.6161 102.658H47.4357L46.7374 104.267H45.9544ZM44.7905 104.267V108.055L46.166 109.43H43.1823V104.267H41.2248L40.5371 102.658H42.4522L44.7905 104.267ZM54.101 103.209L53.5614 102.669H56.5451L53.5825 106.531L47.9854 102.669H50.3131L52.3658 105.325H52.4716L54.101 103.209ZM53.2228 107.081V108.055L54.5983 109.43H51.6145V106.922H51.5616L49.9428 104.817L53.2228 107.081ZM70.0898 104.267H64.7995L62.4718 102.658H70.0898V104.267ZM63.1913 103.949L64.7995 105.06V107.822H68.4816V106.669L67.1061 105.06H70.0898V108.975C70.0898 109.229 69.8782 109.43 69.6349 109.43H63.6568C63.4029 109.43 63.1913 109.229 63.1913 108.975V103.949ZM74.3855 103.611L78.0887 106.161L79.7816 109.43H77.9723L77.2423 108.023H73.8988L73.5708 108.658L74.3432 109.43H71.3594L74.3855 103.611ZM74.6183 106.647H76.5228L75.5705 104.817L74.6183 106.647ZM76.2583 102.658L77.4327 104.912L74.1633 102.658H76.2583ZM82.6647 102.658V104.267L80.3369 102.658H82.6647ZM87.955 106.446V109.43H81.0564V103.949L82.6647 105.06V107.822H86.5795L87.955 106.446ZM92.1473 103.611L95.8506 106.161L97.5435 109.43H95.7342L95.0041 108.023H91.6606L91.3326 108.658L92.105 109.43H89.1213L92.1473 103.611ZM92.3801 106.647H94.2846L93.3324 104.817L92.3801 106.647ZM94.0201 102.658L95.1946 104.912L91.9251 102.658H94.0201ZM100.998 106.055L100.035 104.796L106.764 109.43H104.638L102.648 106.859H102.405L100.85 108.89L101.389 109.43H98.4056L100.998 106.055ZM104.066 106.055L105.241 107.578L98.0988 102.658H100.427L102.405 105.251H102.648L104.214 103.198L103.675 102.658H106.659L104.066 106.055ZM113.431 103.209L112.892 102.669H115.875L112.913 106.531L107.316 102.669H109.643L111.696 105.325H111.802L113.431 103.209ZM112.553 107.081V108.055L113.928 109.43H110.945V106.922H110.892L109.273 104.817L112.553 107.081Z" fill="black"/>
</svg>
