<svg width="71" height="71" viewBox="0 0 71 71" fill="none" xmlns="http://www.w3.org/2000/svg">
<path d="M32.1084 49.998H37.9417V38.3313H49.6084V32.498H37.9417V20.8313H32.1084V32.498H20.4417V38.3313H32.1084V49.998ZM35.0251 64.5813C30.9903 64.5813 27.1987 63.8152 23.6501 62.283C20.1015 60.7527 17.0146 58.675 14.3896 56.05C11.7646 53.425 9.68701 50.3382 8.15673 46.7896C6.62451 43.241 5.8584 39.4493 5.8584 35.4146C5.8584 31.3799 6.62451 27.5882 8.15673 24.0396C9.68701 20.491 11.7646 17.4042 14.3896 14.7792C17.0146 12.1542 20.1015 10.0756 23.6501 8.54337C27.1987 7.01309 30.9903 6.24796 35.0251 6.24796C39.0598 6.24796 42.8515 7.01309 46.4001 8.54337C49.9487 10.0756 53.0355 12.1542 55.6605 14.7792C58.2855 17.4042 60.3631 20.491 61.8934 24.0396C63.4256 27.5882 64.1917 31.3799 64.1917 35.4146C64.1917 39.4493 63.4256 43.241 61.8934 46.7896C60.3631 50.3382 58.2855 53.425 55.6605 56.05C53.0355 58.675 49.9487 60.7527 46.4001 62.283C42.8515 63.8152 39.0598 64.5813 35.0251 64.5813Z" fill="black"/>
</svg>
